<?xml version="1.0" encoding="UTF-8"?>
<svg id="Layer_1" data-name="Layer 1" xmlns="http://www.w3.org/2000/svg" viewBox="0 0 960 960">
  <defs>
    <style>
      .cls-1 {
        fill: #de3423;
      }

      .cls-1, .cls-2, .cls-3 {
        fill-rule: evenodd;
      }

      .cls-1, .cls-2, .cls-3, .cls-4 {
        stroke-width: 0px;
      }

      .cls-2 {
        fill: #555;
      }

      .cls-3, .cls-4 {
        fill: #380d09;
      }
    </style>
  </defs>
  <path class="cls-4" d="M318.07,513.64c9.86,19.38,25.65,28.94,47.76,28.94,23.74,0,32.21-12.56,32.21-24.84,0-8.47-3.01-14.19-10.92-19.38-7.92-5.46-13.65-7.91-27.83-13.15-17.48-6.58-27.57-11.51-38.49-20.21-10.92-9.01-16.1-21.37-16.1-37.39-.38-14.32,5.86-28.02,16.92-37.12,11.51-9.55,25.39-14.19,42.02-14.19,25.93,0,45.58,10.37,58.68,30.84l-24.28,16.72c-7.37-11.2-18.56-16.93-33.85-16.93s-25.93,8.47-25.93,20.21c0,7.91,3.29,11.74,7.92,16.44,2.99,2.19,10.64,5.46,14.19,7.37l9.86,3.81,11.18,4.37c18.09,7.37,30.84,15.29,38.75,23.74,7.91,8.45,12.02,19.93,12.02,34.12,0,33.57-23.2,56.23-66.6,56.23-35.2,0-61.13-16.44-73.13-43.4l25.62-16.16Z"/>
  <path class="cls-4" d="M570.53,451.69l-20.14,21.01c-8.95-9.78-21.67-15.24-34.92-15.01-11.36-.27-22.33,4.17-30.3,12.28-16,17.45-16,44.24,0,61.69,7.97,8.11,18.94,12.55,30.3,12.28,13.25.23,25.97-5.24,34.92-15.01l20.21,21.01c-14.8,15.83-33.03,23.74-55.13,23.74s-38.77-6.82-53.22-20.75-21.57-31.39-21.57-52.12,7.1-37.95,21.57-51.86,32.19-21.01,53.22-21.01c22.03,0,40.31,7.91,55.06,23.74Z"/>
  <path class="cls-4" d="M635.69,486.07c23.21-2.17,31.44-5.18,31.44-15.82,0-8.47-7.63-15.01-22.92-15.01s-27.01,6-36.84,18l-20.19-17.2c13.37-18.83,32.19-28.1,56.49-28.1,34.12,0,55.41,16.44,55.41,44.47v60.83c0,9.55,3.53,10.65,11.51,10.65h.82v25.37c-3.29,1.92-8.47,3.01-15.29,3.01-7.37,0-13.15-2.19-17.46-6.58-2.3-2.6-3.98-5.67-4.93-9.01-9.55,11.18-25.11,16.92-46.68,16.92-30.28,0-50.75-16.65-50.75-41.76-.08-28.05,18.74-42.24,59.4-45.79ZM631.87,545.88c21.83,0,35.2-9.86,35.2-27.29v-15.29c-1.89,1.91-4.23,3.32-6.81,4.09-6.28,2.19-10.37,2.73-23.48,4.09-19.1,2.19-28.66,8.22-28.66,17.74,0,10.62,8.73,16.65,23.74,16.65Z"/>
  <path class="cls-4" d="M719.47,379.63h32.75v145.21c0,13.37,4.37,19.1,16.44,19.1,3.32.11,6.65-.26,9.86-1.1v29.2c-5.09,1.24-10.33,1.8-15.57,1.64-28.92,0-43.39-14.8-43.39-44.49l-.1-149.57Z"/>
  <path class="cls-4" d="M845.85,486.07c23.2-2.17,31.39-5.18,31.39-15.82,0-8.47-7.63-15.01-22.92-15.01s-27.01,6-36.84,18l-20.19-17.2c13.37-18.83,32.19-28.1,56.49-28.1,34.12,0,55.41,16.44,55.41,44.47v60.83c0,9.55,3.53,10.65,11.51,10.65h.82v25.37c-3.29,1.92-8.47,3.01-15.29,3.01-7.37,0-13.15-2.19-17.46-6.58-2.3-2.59-3.99-5.67-4.93-9.01-9.55,11.18-25.11,16.92-46.68,16.92-30.28,0-50.75-16.65-50.75-41.76-.03-28.05,18.83-42.24,59.45-45.79ZM842.04,545.88c21.83,0,35.2-9.86,35.2-27.29v-15.29c-1.89,1.92-4.24,3.33-6.82,4.09-6.26,2.19-10.36,2.73-23.46,4.09-19.1,2.19-28.66,8.22-28.66,17.74.08,10.62,8.73,16.65,23.74,16.65Z"/>
  <path class="cls-3" d="M38.33,435.45c3.04,4.19,28.69,12.1,66.95,20.34,38.26,7.33,78.05,36.29,108.99,27.36,20.93-6.05,43.63-59.96,43.63-67.97v-.82c0-5.59-4.19-10.08-11.31-13.81-29.18-14.91-34.71-20.4-45.53-17.43-56.16,15.5-155.32,7.58-162.74,52.33Z"/>
  <path class="cls-3" d="M38.33,544.91c3.04,4.26,28.69,12.1,66.95,20.35,42.75,7.79,79.92,33.19,110.88,24.25,20.93-6.05,41.74-56.85,41.74-64.88v-.79c0-5.57-4.19-10.08-11.31-13.79-22.26-11.84-51.67-24.88-62.48-21.9-56.26,15.47-131.46,18.87-145.78,56.76Z"/>
  <path class="cls-2" d="M38.02,458.97v.79h0c-.02-.26-.02-.53,0-.79Z"/>
  <path class="cls-1" d="M216.07,326.85c-51.72,14.95-133.78,23.38-177.99,23.38h0v84.43c.01.29.12.57.31.79,30.17,0,123.31-9.86,179.51-25.32,9.8-2.49,19.41-5.69,28.76-9.55,6.87-3.09,11.31-6.35,11.31-9.73v-85.15c-.07,8.02-20.96,15.13-41.89,21.16Z"/>
  <path class="cls-1" d="M216.07,436.34c-30.96,8.93-72.74,15.57-110.8,19.45-25.55,2.61-49.42,3.98-67.2,3.98h0v84.36c.01.29.12.57.31.79,30.17,0,123.31-9.86,179.51-25.3,9.8-2.5,19.41-5.69,28.76-9.55,6.87-3.11,11.31-6.35,11.31-9.73v-85.15c-.07,8.01-20.96,15.11-41.89,21.16Z"/>
  <path class="cls-1" d="M216.07,545.88c-30.96,8.93-72.74,15.55-110.8,19.45-25.58,2.61-49.49,3.98-67.26,3.98v85.08c29.86,0,123.47-9.78,179.82-25.3,20.77-5.72,40.07-12.23,40.07-19.3v-85.15c0,8.09-20.9,15.13-41.83,21.24Z"/>
</svg>